# xmcd
# 
# Track frame offsets:
#     183
#     21883
#     39178
#     57705
#     76485
#     93865
#     111723
#     126870
#     146185
#     162708
#     185410
#     198583
#     214753
#     233555
#     253365
#     269953
#     287598
#     303195
# 
# Disc length: 4242
# 
# Revision: 4
# Processed by: cddbd v1.5.2PL0 Copyright (c) Steve Scherf et al.
# Submitted via: fre:ac v1.0.17
# 
DISCID=1b109012
DTITLE=Various Artist - Soul Inspiration
DYEAR=1993
DGENRE=Pop
TTITLE0=Lionel Richie - My Destiny
TTITLE1=Shanice - I Love Your Smile
TTITLE2=PM Dawn - Looking Through Patients Eyes
TTITLE3=Mica Paris - I Never Felt Like This Before
TTITLE4=Dobie Gray - Drift Away
TTITLE5=Marvin Gaye - What's Going On
TTITLE6=Michael Jackson - Got To Be There
TTITLE7=Anita Baker - Sweet Love
TTITLE8=Vanessa Williams - Save The Best For Last
TTITLE9=Chi-Lites - Have You Seen Her
TTITLE10=Jimmy Ruffin - What Becomes Of The Broken Hearted
TTITLE11=Eddie Holman - Hey There Lonely Girl
TTITLE12=Freddie Jackson - Me And Mrs Jones
TTITLE13=Brenda Russel - Piano In The Dark
TTITLE14=Harold Melvin - Wake Up Everybody
TTITLE15=Des'ree - Feel So High
TTITLE16=Aretha Franklin - Until you Come Back To Me (That's What I'm Gonna Do)
TTITLE17=Don-E - Love Makes The World Go Round
EXTD=YEAR: 1993
EXTT0=Lionel Ritchie
EXTT1=Shanice\n
EXTT2=PM Dawn
EXTT3=Mica Paris
EXTT4=Dobie Gray
EXTT5=Marvin Gaye
EXTT6=Michael Jackson
EXTT7=Anita Baker\n
EXTT8=Vanessa Williams
EXTT9=Chi-Lites
EXTT10=Jimmy Ruffin
EXTT11=Eddie Holman
EXTT12=Freddie Jackson\n
EXTT13=Brenda Russel
EXTT14=Harold Melvin
EXTT15=Des'ree
EXTT16=Aretha Franklin
EXTT17=Don-E
PLAYORDER=
